# xmcd
#
# Track frame offsets:
#	150
#	20572
#	38785
#	60895
#	76720
#	96190
#	113280
#	132350
#	150227
#	171340
#	192252
#	213200
#	232022
#	252412
#
# Disc length: 3640 seconds
#
# Revision: 1
# Processed by: cddbd v1.5.1PL0 Copyright (c) Steve Scherf et al.
# Submitted via: CDex 1.50Beta5
#
DISCID=a60e360e
DTITLE=冠二郎 - ゴールデンベスト
DYEAR=1999
DGENRE=World
TTITLE0=男の錦
TTITLE1=のぼり竜
TTITLE2=酒場
TTITLE3=旅の終わりに
TTITLE4=炎
TTITLE5=みれん酒
TTITLE6=しのび酒
TTITLE7=餞
TTITLE8=ムサシ
TTITLE9=まごころ
TTITLE10=人情酒場
TTITLE11=望桜の果て
TTITLE12=思い出川
TTITLE13=大文字
EXTD=
EXTT0=
EXTT1=
EXTT2=
EXTT3=
EXTT4=
EXTT5=
EXTT6=
EXTT7=
EXTT8=
EXTT9=
EXTT10=
EXTT11=
EXTT12=
EXTT13=
PLAYORDER=
